<svg width="18" height="21" viewBox="0 0 18 21" fill="none" xmlns="http://www.w3.org/2000/svg">
<path id="deletecon" d="M7.61429 8.38889C7.61429 7.89183 7.21134 7.48889 6.71429 7.48889C6.21723 7.48889 5.81429 7.89183 5.81429 8.38889H7.61429ZM5.81429 16.8333C5.81429 17.3304 6.21723 17.7333 6.71429 17.7333C7.21134 17.7333 7.61429 17.3304 7.61429 16.8333H5.81429ZM12.1857 8.38889C12.1857 7.89183 11.7828 7.48889 11.2857 7.48889C10.7887 7.48889 10.3857 7.89183 10.3857 8.38889H12.1857ZM10.3857 16.8333C10.3857 17.3304 10.7887 17.7333 11.2857 17.7333C11.7828 17.7333 12.1857 17.3304 12.1857 16.8333H10.3857ZM3.39088 19.7699L3.77411 18.9556L3.39088 19.7699ZM2.39199 18.8473L3.18002 18.4126L3.18002 18.4126L2.39199 18.8473ZM15.608 18.8473L14.82 18.4126L14.82 18.4126L15.608 18.8473ZM14.6091 19.7699L14.2259 18.9556H14.2259L14.6091 19.7699ZM1 4.32222C0.502944 4.32222 0.1 4.72517 0.1 5.22222C0.1 5.71928 0.502944 6.12222 1 6.12222V4.32222ZM17 6.12222C17.4971 6.12222 17.9 5.71928 17.9 5.22222C17.9 4.72517 17.4971 4.32222 17 4.32222V6.12222ZM4.1 5.22222C4.1 5.71928 4.50294 6.12222 5 6.12222C5.49706 6.12222 5.9 5.71928 5.9 5.22222H4.1ZM12.1 5.22222C12.1 5.71928 12.5029 6.12222 13 6.12222C13.4971 6.12222 13.9 5.71928 13.9 5.22222H12.1ZM5.81429 8.38889V16.8333H7.61429V8.38889H5.81429ZM10.3857 8.38889V16.8333H12.1857V8.38889H10.3857ZM14.9571 5.22222V16.6222H16.7571V5.22222H14.9571ZM12.2 19.1H5.8V20.9H12.2V19.1ZM1.24286 5.22222V16.6222H3.04286V5.22222H1.24286ZM5.8 19.1C5.14621 19.1 4.70588 19.0994 4.36647 19.0738C4.03565 19.0488 3.87708 19.004 3.77411 18.9556L3.00765 20.5842C3.39362 20.7659 3.79955 20.8361 4.23102 20.8687C4.65391 20.9006 5.17367 20.9 5.8 20.9V19.1ZM1.24286 16.6222C1.24286 17.1973 1.24204 17.6872 1.2775 18.0881C1.31409 18.5018 1.39438 18.9022 1.60395 19.282L3.18002 18.4126C3.14046 18.3409 3.09618 18.2199 3.0705 17.9295C3.04368 17.6263 3.04286 17.2295 3.04286 16.6222H1.24286ZM3.77411 18.9556C3.50685 18.8298 3.30303 18.6355 3.18002 18.4126L1.60395 19.282C1.91922 19.8535 2.41474 20.3052 3.00765 20.5842L3.77411 18.9556ZM14.9571 16.6222C14.9571 17.2295 14.9563 17.6263 14.9295 17.9295C14.9038 18.2199 14.8595 18.3409 14.82 18.4126L16.3961 19.282C16.6056 18.9022 16.6859 18.5018 16.7225 18.0881C16.758 17.6872 16.7571 17.1973 16.7571 16.6222H14.9571ZM12.2 20.9C12.8263 20.9 13.3461 20.9006 13.769 20.8687C14.2004 20.8361 14.6064 20.7659 14.9923 20.5842L14.2259 18.9556C14.1229 19.004 13.9644 19.0488 13.6335 19.0738C13.2941 19.0994 12.8538 19.1 12.2 19.1V20.9ZM14.82 18.4126C14.697 18.6355 14.4932 18.8298 14.2259 18.9556L14.9923 20.5842C15.5853 20.3052 16.0808 19.8535 16.3961 19.282L14.82 18.4126ZM1 6.12222H2.14286V4.32222H1V6.12222ZM2.14286 6.12222H15.8571V4.32222H2.14286V6.12222ZM15.8571 6.12222H17V4.32222H15.8571V6.12222ZM5.9 4.37778C5.9 3.14595 7.1393 1.9 9 1.9V0.1C6.44243 0.1 4.1 1.87861 4.1 4.37778H5.9ZM9 1.9C10.8607 1.9 12.1 3.14595 12.1 4.37778H13.9C13.9 1.87861 11.5576 0.1 9 0.1V1.9ZM4.1 4.37778V5.22222H5.9V4.37778H4.1ZM12.1 4.37778V5.22222H13.9V4.37778H12.1Z" fill="#ED0000"/>
</svg>
