<svg width="18" height="20" viewBox="0 0 18 20" fill="none" xmlns="http://www.w3.org/2000/svg">
<g id="Frame">
<path id="Vector" fill-rule="evenodd" clip-rule="evenodd" d="M3.58299 0.833008H14.417L17.333 4.72301V16.667C17.333 17.33 17.0696 17.9659 16.6008 18.4348C16.1319 18.9036 15.496 19.167 14.833 19.167H3.16699C2.50436 19.1657 1.86924 18.9019 1.40068 18.4333C0.93213 17.9648 0.668313 17.3296 0.666992 16.667V4.72201L3.58299 0.833008ZM4.41699 2.50001L3.16699 4.16701H14.833L13.583 2.50001H4.41699ZM15.667 5.83301H2.33299V16.667C2.33299 17.123 2.70999 17.5 3.16699 17.5H14.833C14.9425 17.5001 15.0509 17.4787 15.1521 17.4369C15.2533 17.3951 15.3452 17.3337 15.4227 17.2564C15.5001 17.179 15.5616 17.0871 15.6035 16.986C15.6454 16.8849 15.667 16.7765 15.667 16.667V5.83301ZM6.49999 8.33301C6.49999 8.99605 6.76338 9.63193 7.23223 10.1008C7.70107 10.5696 8.33695 10.833 8.99999 10.833C9.66303 10.833 10.2989 10.5696 10.7678 10.1008C11.2366 9.63193 11.5 8.99605 11.5 8.33301H13.167C13.167 9.43816 12.728 10.4981 11.9465 11.2795C11.165 12.061 10.1051 12.5 8.99999 12.5C7.89484 12.5 6.83494 12.061 6.05348 11.2795C5.27201 10.4981 4.83299 9.43816 4.83299 8.33301H6.49999Z" fill="black"/>
</g>
</svg>
