<svg width="32" height="33" viewBox="0 0 32 33" fill="none" xmlns="http://www.w3.org/2000/svg">
<g id="Group 1000001931">
<g id="Group">
<path id="Vector" d="M25.5125 17.1856C25.5125 16.5233 25.4484 15.8397 25.3416 15.1987H16.0908V18.9802H21.3892C21.1755 20.198 20.4705 21.2662 19.4237 21.9499L22.5856 24.4068C24.4443 22.6762 25.5125 20.1553 25.5125 17.1856Z" fill="#4280EF"/>
<path id="Vector_2" d="M16.0934 26.7564C18.7425 26.7564 20.9644 25.8804 22.5881 24.3849L19.4262 21.9494C18.5503 22.5476 17.4179 22.8894 16.0934 22.8894C13.5296 22.8894 11.3718 21.1589 10.5814 18.8516L7.33398 21.3512C9.0004 24.6627 12.376 26.7564 16.0934 26.7564Z" fill="#34A353"/>
<path id="Vector_3" d="M10.5799 18.8304C10.174 17.6127 10.174 16.2881 10.5799 15.0703L7.33253 12.5493C5.94385 15.3267 5.94385 18.5954 7.33253 21.3514L10.5799 18.8304Z" fill="#F6B704"/>
<path id="Vector_4" d="M16.0934 11.0327C17.482 11.0114 18.8494 11.5455 19.8535 12.5069L22.6522 9.68677C20.879 8.02035 18.5289 7.12305 16.0934 7.14442C12.376 7.14442 9.0004 9.23812 7.33398 12.5496L10.5814 15.0706C11.3718 12.7419 13.5296 11.0327 16.0934 11.0327Z" fill="#E54335"/>
</g>
</g>
</svg>
