<svg width="11" height="24" viewBox="0 0 11 24" fill="none" xmlns="http://www.w3.org/2000/svg">
<g id="Frame">
<path id="Vector" fill-rule="evenodd" clip-rule="evenodd" d="M5.57178 14.4805C5.52019 14.5321 5.45893 14.573 5.39151 14.601C5.3241 14.6289 5.25183 14.6433 5.17886 14.6433C5.10588 14.6433 5.03362 14.6289 4.96621 14.601C4.89879 14.573 4.83753 14.5321 4.78594 14.4805L0.617887 10.3105C0.513642 10.2062 0.455078 10.0649 0.455078 9.91744C0.455078 9.77001 0.513642 9.62863 0.617887 9.52438C0.722132 9.42014 0.863518 9.36157 1.01094 9.36157C1.15837 9.36157 1.29975 9.42014 1.404 9.52438L5.179 13.301L8.954 9.52438C9.00562 9.47278 9.06689 9.43186 9.13432 9.40394C9.20176 9.37602 9.27403 9.36166 9.34701 9.36167C9.42 9.36168 9.49226 9.37607 9.55969 9.40401C9.62711 9.43196 9.68837 9.4729 9.73997 9.52452C9.79157 9.57614 9.8325 9.63741 9.86041 9.70484C9.88833 9.77228 9.90269 9.84455 9.90268 9.91754C9.90267 9.99052 9.88828 10.0628 9.86034 10.1302C9.8324 10.1976 9.79145 10.2589 9.73983 10.3105L5.5715 14.4805H5.57178Z" fill="black"/>
</g>
</svg>
