<svg width="42" height="42" viewBox="0 0 42 42" fill="none" xmlns="http://www.w3.org/2000/svg">
<g id="star-01">
<path id="Icon" d="M19.0594 5.55141C19.7261 3.74979 22.2743 3.74979 22.9409 5.55141L26.2591 14.5187C26.4687 15.0851 26.9153 15.5317 27.4817 15.7413L36.449 19.0594C38.2506 19.7261 38.2506 22.2743 36.449 22.9409L27.4817 26.2591C26.9153 26.4687 26.4687 26.9153 26.2591 27.4817L22.9409 36.449C22.2743 38.2506 19.7261 38.2506 19.0594 36.449L15.7413 27.4817C15.5317 26.9153 15.0851 26.4687 14.5187 26.2591L5.55141 22.9409C3.74979 22.2743 3.74979 19.7261 5.55141 19.0594L14.5187 15.7413C15.0851 15.5317 15.5317 15.0851 15.7413 14.5187L19.0594 5.55141Z" fill="#FFF8EB" stroke="#FFC96C" stroke-width="2" stroke-linejoin="round"/>
</g>
</svg>
