<svg width="24" height="24" viewBox="0 0 24 24" fill="none" xmlns="http://www.w3.org/2000/svg">
<g id="star-01">
<path id="Icon" d="M10.8914 3.17203C11.2723 2.14253 12.7284 2.14253 13.1094 3.17203L15.0055 8.29616C15.1253 8.61984 15.3805 8.87503 15.7041 8.9948L20.8283 10.8909C21.8578 11.2718 21.8578 12.728 20.8283 13.1089L15.7041 15.005C15.3805 15.1248 15.1253 15.38 15.0055 15.7036L13.1094 20.8278C12.7284 21.8573 11.2723 21.8573 10.8914 20.8278L8.99529 15.7036C8.87552 15.38 8.62032 15.1248 8.29665 15.005L3.17251 13.1089C2.14302 12.728 2.14302 11.2719 3.17251 10.8909L8.29665 8.9948C8.62032 8.87503 8.87552 8.61984 8.99529 8.29617L10.8914 3.17203Z" stroke="#CFF1FF" stroke-width="2" stroke-linejoin="round"/>
</g>
</svg>
